<?xml version="1.0" encoding="utf-8" standalone="yes"?>
<!DOCTYPE svg PUBLIC "-//W3C//DTD SVG 1.1//EN" "http://www.w3.org/Graphics/SVG/1.1/DTD/svg11.dtd">
<svg width="684" height="378" viewBox="0 0 684 378" style="fill:none;stroke:none;fill-rule:evenodd;clip-rule:evenodd;stroke-linecap:round;stroke-linejoin:round;stroke-miterlimit:1.5;" version="1.1" xmlns="http://www.w3.org/2000/svg" xmlns:xlink="http://www.w3.org/1999/xlink"><style id="fontImports">@import url("https://fonts.googleapis.com/css2?family=Roboto:wght@400;700&amp;display=block");</style><g id="items" style="isolation: isolate"><g id="blend" style="mix-blend-mode:screen"><g id="g-root-3.cu_sy_zn6oez1sorzt7-fill" data-item-order="-94076" data-item-id="3.cu_sy_zn6oez1sorzt7" data-item-class="Part Indexed Fill Stroke" data-item-index="3" data-renderer-id="0" transform="translate(217.99996948242188, 214.97622680664062)"><g id="3.cu_sy_zn6oez1sorzt7-fill" stroke="none" fill="url(#gradient-92c031-119406507)"><g><path d="M 110.640363 77.216786C 105.190463 78.471786 99.599863 77.189786 95.369263 74.208186C 92.545563 83.747386 83.985763 90.680786 73.863463 90.680786C 67.386763 90.680786 61.551863 87.841586 57.447163 83.300386C 52.397063 83.251286 47.574163 82.489886 47.574163 82.489886C 40.887663 81.129286 34.717063 78.353886 29.390563 74.495486C 28.938863 76.740286 28.699463 79.063686 28.699463 81.441186C 28.699463 100.863486 44.523363 116.611586 64.044763 116.611586C 66.095863 116.611586 68.105063 116.434786 70.059863 116.103186C 70.059863 116.159686 70.059863 116.213686 70.059863 116.267686C 70.059863 134.358886 84.797763 149.023886 102.978863 149.023886C 111.556063 149.023886 119.368063 145.757286 125.227663 140.408086L 125.227663 58.850586C 125.291863 67.427086 119.390263 75.205286 110.642763 77.216786L 110.640363 77.216786ZM 57.3583 60.238222C 49.9239 62.524822 41.6281 59.474422 37.6024 52.474722C 34.3986 46.902022 34.7318 40.278122 37.8986 35.174422C 28.734 29.368422 21.7316 20.489822 18.3402 10.000122C 18.239 10.145022 18.1353 10.287522 18.0366 10.434822C 12.9619 17.908522 10 26.917322 10 36.616122C 10 52.187422 17.6392 65.982922 29.3906 74.495522C 34.717 78.353922 40.8876 81.126822 47.5741 82.489922C 47.5741 82.489922 52.3971 83.251322 57.4471 83.300422C 61.5518 87.844122 67.3867 90.680822 73.8634 90.680822C 83.9857 90.680822 92.5456 83.747422 95.3693 74.208222C 80.8288 79.466522 64.7556 73.186522 57.3583 60.238222ZM 241.96356 10.4347C 241.86476 10.2874 241.76116 10.1449 241.65996 10C 238.26856 20.4897 231.26616 29.3658 222.10156 35.1743C 225.27076 40.278 225.60396 46.9019 222.39776 52.4746C 218.37206 59.4768 210.07626 62.5272 202.64186 60.2381C 195.24456 73.1864 179.17126 79.464 164.63086 74.2081C 167.45456 83.7473 176.01446 90.6807 186.13666 90.6807C 192.61336 90.6807 198.44836 87.8415 202.55306 83.3003C 207.60306 83.2512 212.42596 82.4898 212.42596 82.4898C 219.11246 81.1292 225.28306 78.3538 230.60956 74.4954C 242.36086 65.9828 250.00016 52.1873 250.00016 36.616C 250.00016 26.9172 247.03826 17.9084 241.96356 10.4347ZM 149.362315 77.216786C 154.812215 78.471786 160.402715 77.189786 164.633315 74.208186C 167.457015 83.747386 176.016915 90.680786 186.139115 90.680786C 192.615815 90.680786 198.450815 87.841586 202.555515 83.300386C 207.605515 83.251286 212.428515 82.489886 212.428515 82.489886C 219.114915 81.129286 225.285515 78.353886 230.612015 74.495486C 231.063715 76.740286 231.303115 79.063686 231.303115 81.441186C 231.303115 100.863486 215.479215 116.611586 195.957815 116.611586C 193.906715 116.611586 191.897615 116.434786 189.942715 116.103186C 189.942715 116.159686 189.942715 116.213686 189.942715 116.267686C 189.942715 134.358886 175.204815 149.023886 157.023715 149.023886C 148.446515 149.023886 140.634515 145.757286 134.774915 140.408086L 134.774915 58.850586C 134.710715 67.427086 140.612315 75.205286 149.359815 77.216786L 149.362315 77.216786Z"></path></g></g></g><g id="g-root-3.line_sy_zn6oez1sorzt8-fill" data-item-order="-94073" data-item-id="3.line_sy_zn6oez1sorzt8" data-item-class="Part Indexed Stroke ColorStrokeGray" data-item-index="3" data-renderer-id="0" transform="translate(169.99996948242188, 278.0000305175781)"></g><g id="g-root-2.cu_sy_18itonv1sorz0h-fill" data-item-order="-94072" data-item-id="2.cu_sy_18itonv1sorz0h" data-item-class="Part Indexed Fill Stroke" data-item-index="2" data-renderer-id="0" transform="translate(342.713134765625, 74)"><g id="2.cu_sy_18itonv1sorz0h-fill" stroke="none" fill="url(#gradient-3bc382-226276808)"><g><path d="M 23.925937 128.405316C 36.810137 135.353516 52.917937 130.593716 59.900637 117.773216C 62.003537 113.912316 63.040237 109.759116 63.109337 105.652616L 63.151237 103.039416C 63.321537 100.637416 64.000337 98.233016 65.227037 95.978316C 67.473137 91.852216 71.150837 88.993416 75.314837 87.674516C 81.046037 80.940016 84.491737 71.476916 84.491737 61.962316C 84.464637 60.577116 84.363437 59.209116 84.195537 57.860716C 81.329937 56.310916 78.029837 55.424316 74.539737 55.424316C 69.719337 55.424316 65.308537 57.096916 61.833237 59.896716C 62.877337 63.035616 62.874837 66.540316 61.579037 69.863316C 59.542737 75.087316 54.848137 78.501216 49.630237 79.169216L 46.653537 79.346116C 40.835837 79.847116 35.524137 83.550816 33.270637 89.332316C 31.779837 93.156316 31.895837 97.203916 33.287937 100.743016C 30.301337 99.129416 26.949537 98.186316 23.311337 98.186316C 18.290837 98.186316 13.680237 99.932516 10.061737 102.850316L 10.061737 106.504916C 10.515937 115.398216 15.479537 123.851916 23.923437 128.405316L 23.925937 128.405316ZM 61.833237 59.8943C 62.877337 63.0331 62.874837 66.5379 61.579037 69.8609C 59.542737 75.0849 54.848137 78.4988 49.630237 79.1668L 46.653537 79.3436C 40.835837 79.8447 35.524137 83.5484 33.270637 89.3299C 31.779837 93.1539 31.895837 97.2015 33.287937 100.7406C 30.301337 99.127 26.949537 98.1839 23.311337 98.1839C 18.290837 98.1839 13.680237 99.9301 10.061737 102.8479L 10.061737 33.8284C 10.061737 20.6666 20.783837 10 34.008637 10C 44.318537 10 53.107937 16.4839 56.482037 25.5786C 71.155837 29.8104 82.250537 42.4196 84.193037 57.8607C 81.327437 56.311 78.027437 55.4243 74.537337 55.4243C 69.716837 55.4243 65.306037 57.0969 61.830737 59.8968L 61.833237 59.8943ZM 105.51872 96.314717C 105.51872 81.357517 96.98102 68.387117 84.49412 61.959717C 84.49412 71.476817 81.04852 80.937517 75.31722 87.674417C 71.15332 88.993317 67.47562 91.854517 65.22952 95.978217C 64.00032 98.232917 63.32402 100.637317 63.15372 103.039317L 63.11172 105.652517C 63.04262 109.759017 62.00592 113.912217 59.90302 117.773117C 52.92032 130.593517 36.81252 135.353317 23.92832 128.405217C 15.48442 123.851717 10.52082 115.398117 10.06662 106.504817L 10.06662 159.614017C 14.31692 162.008717 19.23122 163.376717 24.46642 163.376717C 26.17442 163.376717 27.84782 163.231717 29.47442 162.951717L 29.48432 162.951717C 31.76742 170.582717 38.87352 176.150717 47.28782 176.150717C 57.54582 176.150717 65.85892 167.875717 65.85892 157.671317C 65.85892 155.961917 65.62442 154.306517 65.19002 152.734717L 65.23192 152.722417C 77.65462 152.722417 87.72512 142.701817 87.72512 130.340617C 87.72512 129.837117 87.67572 128.842417 87.67572 128.842417C 96.60832 123.119817 103.03072 113.853217 104.93622 103.041817C 105.32122 100.858317 105.52362 98.611117 105.52362 96.319617L 105.51872 96.314717ZM 77.931132 201.214487C 85.365432 203.500987 93.661232 200.450687 97.686932 193.450987C 100.890732 187.878187 100.557532 181.254287 97.390832 176.150687C 106.555432 170.344587 113.558132 161.465987 116.949132 150.976287C 118.410132 146.452287 119.207132 141.631087 119.207132 136.623287C 119.207132 123.449087 113.738132 111.547187 104.936232 103.036987C 103.030732 113.850887 96.608332 123.115087 87.675732 128.837587C 87.707832 129.333687 87.725132 129.832287 87.725132 130.335787C 87.725132 142.696987 77.654632 152.717687 65.231932 152.717687L 65.190032 152.729887C 65.626932 154.301787 65.858932 155.957187 65.858932 157.666587C 65.858932 167.873787 57.543432 176.145687 47.287832 176.145687C 38.873532 176.145687 31.767532 170.577887 29.484332 162.944587L 29.474432 162.944587C 27.847932 163.226987 26.174432 163.371887 24.466432 163.371887C 19.231232 163.371887 14.319432 162.003887 10.066632 159.609287L 10.066632 199.821887C 10.002432 208.397987 15.904032 216.176987 24.651532 218.187987C 30.101432 219.442987 35.692032 218.160987 39.922532 215.178987C 54.463032 220.437987 70.536232 214.157987 77.933632 201.209587L 77.931132 201.214487Z"></path></g></g></g><g id="g-root-2.line_sy_18itonv1sorz0i-fill" data-item-order="-94069" data-item-id="2.line_sy_18itonv1sorz0i" data-item-class="Part Indexed Stroke ColorStrokeGray" data-item-index="2" data-renderer-id="0" transform="translate(451.99993896484375, 158)"></g><g id="g-root-1.cu_sy_1cy0pp71sos1dz-fill" data-item-order="-94068" data-item-id="1.cu_sy_1cy0pp71sos1dz" data-item-class="Part Indexed Indexed_1 Fill Stroke" data-item-index="1" data-renderer-id="0" transform="translate(224.084228515625, 74)"><defs><linearGradient id="gradient-92c031-119406507" x2="0" y2="1"><stop offset="0" stop-color="#A8DD38"></stop><stop offset="1" stop-color="#7ba229"></stop></linearGradient><linearGradient id="gradient-3bc382-226276808" x2="0" y2="1"><stop offset="0" stop-color="#44E095"></stop><stop offset="1" stop-color="#32a56e"></stop></linearGradient><linearGradient id="gradient-17afe2-38714328" x2="0" y2="1"><stop offset="0" stop-color="#1AC6FF"></stop><stop offset="1" stop-color="#1498c4"></stop></linearGradient></defs><g id="1.cu_sy_1cy0pp71sos1dz-fill" stroke="none" fill="url(#gradient-17afe2-38714328)"><g><path d="M 67.369321 59.8943C 66.325321 63.0331 66.327721 66.5379 67.623621 69.8609C 69.659921 75.0849 74.354521 78.4988 79.572421 79.1668L 82.549121 79.3436C 88.366721 79.8447 93.678421 83.5484 95.931921 89.3299C 97.422721 93.1539 97.306721 97.2015 95.914621 100.7406C 98.901221 99.127 102.253121 98.1839 105.891321 98.1839C 110.911721 98.1839 115.522421 99.9301 119.140821 102.8479L 119.140821 33.8284C 119.140821 20.6666 108.418821 10 95.193921 10C 84.884021 10 76.094621 16.4839 72.720521 25.5786C 58.046821 29.8104 46.952021 42.4196 45.009521 57.8607C 47.875121 56.311 51.175221 55.4243 54.665321 55.4243C 59.485821 55.4243 63.896521 57.0969 67.371821 59.8968L 67.369321 59.8943ZM 53.887896 87.674516C 58.051796 88.993416 61.729496 91.854616 63.975596 95.978316C 65.204796 98.233016 65.881096 100.637416 66.051396 103.039416L 66.093396 105.652616C 66.162496 109.759116 67.196696 113.912316 69.302096 117.773216C 76.284796 130.593716 92.392596 135.353516 105.276796 128.405316C 113.720696 123.851916 118.684296 115.398216 119.138496 106.504916L 119.138496 102.850316C 115.520096 99.932516 110.909396 98.186316 105.888996 98.186316C 102.253196 98.186316 98.898896 99.129416 95.912296 100.743016C 97.304396 97.203916 97.417896 93.153916 95.929596 89.332316C 93.676096 83.550816 88.364396 79.847116 82.546696 79.346116L 79.569996 79.169216C 74.352196 78.501216 69.657496 75.087316 67.621196 69.863316C 66.325396 66.540316 66.322896 63.035616 67.366996 59.896716C 63.891696 57.096916 59.480996 55.424316 54.660496 55.424316C 51.170396 55.424316 47.870296 56.313416 45.004696 57.860716C 44.834396 59.206616 44.735696 60.574616 44.708496 61.962316C 44.708496 71.479416 48.154196 80.940016 53.885396 87.676916L 53.887896 87.674516ZM 105.276923 128.405258C 92.392623 135.353358 76.284923 130.593558 69.302223 117.773058C 67.199223 113.912158 66.162623 109.759058 66.093523 105.652558L 66.051523 103.039358C 65.881223 100.637358 65.202423 98.232858 63.975723 95.978258C 61.729623 91.852058 58.051923 88.993258 53.888023 87.674358C 48.156723 80.939958 44.711023 71.476858 44.711023 61.962158C 32.221723 68.389558 23.686523 81.362358 23.686523 96.317158C 23.686523 98.611058 23.888923 100.855858 24.273923 103.039358C 26.179423 113.853258 32.601823 123.117358 41.534423 128.839958C 41.534423 128.839958 41.485023 129.834658 41.485023 130.338158C 41.485023 142.699358 51.555523 152.719958 63.978223 152.719958L 64.020123 152.732258C 63.583323 154.304058 63.351223 155.959458 63.351223 157.668858C 63.351223 167.876158 71.666823 176.148158 81.922323 176.148158C 90.336623 176.148158 97.442723 170.580158 99.725823 162.947158L 99.735723 162.947158C 101.362223 163.229158 103.035723 163.374158 104.743723 163.374158C 109.978923 163.374158 114.890723 162.006158 119.143523 159.611558L 119.143523 106.502358C 118.689323 115.395658 113.725723 123.849258 105.281823 128.402758L 105.276923 128.405258ZM 104.7412 163.37677C 103.0332 163.37677 101.3597 163.23187 99.7331 162.95187L 99.7233 162.95187C 97.4401 170.58277 90.3341 176.15057 81.9198 176.15057C 71.6618 176.15057 63.3487 167.87627 63.3487 157.67147C 63.3487 155.96207 63.5832 154.30667 64.0176 152.73477L 63.9756 152.72247C 51.5529 152.72247 41.4825 142.70187 41.4825 130.34067C 41.4825 129.83717 41.4998 129.33867 41.5319 128.84247C 32.5993 123.11997 26.1769 113.85337 24.2714 103.04187C 15.4696 111.54957 10 123.45147 10 136.62817C 10 141.63597 10.7948 146.45717 12.2585 150.98117C 15.6498 161.47087 22.6522 170.34697 31.8168 176.15557C 28.6476 181.25917 28.3144 187.88307 31.5206 193.45587C 35.5464 200.45797 43.8421 203.50787 51.2765 201.21937C 58.6738 214.16787 74.7471 220.44487 89.2875 215.18887C 93.5181 218.17087 99.1087 219.45287 104.5586 218.19787C 113.306 216.18387 119.208 208.40587 119.143 199.83167L 119.143 159.61907C 114.893 162.01367 109.9788 163.38167 104.7437 163.38167L 104.7412 163.37677Z"></path></g></g></g><g id="g-root-1.line_sy_18itonv1sorz0g-fill" data-item-order="-94065" data-item-id="1.line_sy_18itonv1sorz0g" data-item-class="Part Indexed Indexed_1 Stroke ColorStrokeGray" data-item-index="1" data-renderer-id="0" transform="translate(170, 158)"></g><g id="g-root-tx__zn6oez1sorzt9-fill" data-item-order="0" data-item-id="tx__zn6oez1sorzt9" data-item-class="Label Stroke Title ColorStrokeGray" data-item-index="none" data-renderer-id="0" transform="translate(284, 2)"><g id="tx__zn6oez1sorzt9-fill" stroke="none" fill="#FFFFFF"><g><text style="font: 20px Roboto, sans-serif; white-space: pre;"><tspan x="14" y="33.5" dominant-baseline="ideographic">同期の魔法</tspan></text></g></g></g><g id="g-root-tx__mbq61n1sos1e6-fill" data-item-order="0" data-item-id="tx__mbq61n1sos1e6" data-item-class="Label Stroke Indexed Indexed_1 ColorStrokeGray" data-item-index="1" data-renderer-id="0" transform="translate(38, 146)"><g id="tx__mbq61n1sos1e6-fill" stroke="none" fill="#FFFFFF"><g><text style="font: 20px Roboto, sans-serif; white-space: pre;"><tspan x="20" y="33.5" dominant-baseline="ideographic">心拍数</tspan></text></g></g></g><g id="g-root-rate_hunpqz1sotez2-fill" data-item-order="0" data-item-id="rate_hunpqz1sotez2" data-item-class="Icon Stroke Indexed Indexed_1 ColorStrokeGray" data-item-index="1" data-renderer-id="0" transform="translate(122, 140)"></g><g id="g-root-danc_deu7mj1sotfrb-fill" data-item-order="0" data-item-id="danc_deu7mj1sotfrb" data-item-class="Icon Stroke Indexed ColorStrokeGray" data-item-index="2" data-renderer-id="0" transform="translate(518, 140)"></g><g id="g-root-tx_bpm_hwj50b1sorz0o-fill" data-item-order="0" data-item-id="tx_bpm_hwj50b1sorz0o" data-item-class="Label Stroke Indexed ColorStrokeGray" data-item-index="2" data-renderer-id="0" transform="translate(566, 146)"><g id="tx_bpm_hwj50b1sorz0o-fill" stroke="none" fill="#FFFFFF"><g><text style="font: 20px Roboto, sans-serif; white-space: pre;"><tspan x="12" y="33.5" dominant-baseline="ideographic">曲のBPM</tspan></text></g></g></g><g id="g-root-tx__mbq61n1sos1e7-fill" data-item-order="0" data-item-id="tx__mbq61n1sos1e7" data-item-class="Label Stroke Indexed ColorStrokeGray" data-item-index="3" data-renderer-id="0" transform="translate(2, 266)"><g id="tx__mbq61n1sos1e7-fill" stroke="none" fill="#FFFFFF"><g><text style="font: 20px Roboto, sans-serif; white-space: pre;"><tspan x="16" y="33.5" dominant-baseline="ideographic">身体的反応</tspan></text></g></g></g><g id="g-root-expa_deu7mj1sotfrc-fill" data-item-order="0" data-item-id="expa_deu7mj1sotfrc" data-item-class="Icon Stroke Indexed ColorStrokeGray" data-item-index="3" data-renderer-id="0" transform="translate(122, 260)"></g><g id="g-root-3.cu_sy_zn6oez1sorzt7-stroke" data-item-order="-94076" data-item-id="3.cu_sy_zn6oez1sorzt7" data-item-class="Part Indexed Fill Stroke" data-item-index="3" data-renderer-id="0" transform="translate(217.99996948242188, 214.97622680664062)"><g id="3.cu_sy_zn6oez1sorzt7-stroke" fill="none" stroke-linecap="round" stroke-linejoin="round" stroke-miterlimit="4" stroke="#ffffff" stroke-width="2"><g><path d="M 110.640363 77.216786C 105.190463 78.471786 99.599863 77.189786 95.369263 74.208186C 92.545563 83.747386 83.985763 90.680786 73.863463 90.680786C 67.386763 90.680786 61.551863 87.841586 57.447163 83.300386C 52.397063 83.251286 47.574163 82.489886 47.574163 82.489886C 40.887663 81.129286 34.717063 78.353886 29.390563 74.495486C 28.938863 76.740286 28.699463 79.063686 28.699463 81.441186C 28.699463 100.863486 44.523363 116.611586 64.044763 116.611586C 66.095863 116.611586 68.105063 116.434686 70.059863 116.103186C 70.059863 116.159686 70.059863 116.213686 70.059863 116.267686C 70.059863 134.358886 84.797763 149.023886 102.978863 149.023886C 111.556063 149.023886 119.368063 145.757286 125.227663 140.408086L 125.227663 58.850586C 125.291863 67.427086 119.390263 75.205286 110.642763 77.216786L 110.640363 77.216786ZM 57.3583 60.238222C 49.9239 62.524822 41.6281 59.474422 37.6024 52.474722C 34.3986 46.902022 34.7318 40.278122 37.8986 35.174422C 28.734 29.368422 21.7316 20.489822 18.3402 10.000122C 18.239 10.145022 18.1353 10.287522 18.0366 10.434822C 12.9619 17.908522 10 26.917322 10 36.616122C 10 52.187422 17.6392 65.982922 29.3906 74.495522C 34.717 78.353922 40.8876 81.126822 47.5741 82.489922C 47.5741 82.489922 52.3971 83.251322 57.4471 83.300422C 61.5518 87.844122 67.3867 90.680822 73.8634 90.680822C 83.9857 90.680822 92.5456 83.747422 95.3693 74.208222C 80.8288 79.466522 64.7556 73.186522 57.3583 60.238222ZM 241.96356 10.4347C 241.86476 10.2874 241.76116 10.1449 241.65996 10C 238.26856 20.4897 231.26616 29.3658 222.10156 35.1743C 225.27076 40.278 225.60396 46.9019 222.39776 52.4746C 218.37206 59.4768 210.07626 62.5272 202.64186 60.2381C 195.24456 73.1864 179.17126 79.464 164.63086 74.2081C 167.45456 83.7473 176.01446 90.6807 186.13666 90.6807C 192.61336 90.6807 198.44836 87.8415 202.55306 83.3003C 207.60306 83.2512 212.42596 82.4898 212.42596 82.4898C 219.11246 81.1292 225.28306 78.3538 230.60956 74.4954C 242.36086 65.9828 250.00016 52.1873 250.00016 36.616C 250.00016 26.9172 247.03826 17.9084 241.96356 10.4347ZM 149.362315 77.216786C 154.812215 78.471786 160.402715 77.189786 164.633315 74.208186C 167.457015 83.747386 176.016915 90.680786 186.139115 90.680786C 192.615815 90.680786 198.450815 87.841586 202.555515 83.300386C 207.605515 83.251286 212.428515 82.489886 212.428515 82.489886C 219.114915 81.129286 225.285515 78.353886 230.612015 74.495486C 231.063715 76.740286 231.303115 79.063686 231.303115 81.441186C 231.303115 100.863486 215.479215 116.611586 195.957815 116.611586C 193.906715 116.611586 191.897615 116.434686 189.942715 116.103186C 189.942715 116.159686 189.942715 116.213686 189.942715 116.267686C 189.942715 134.358886 175.204815 149.023886 157.023715 149.023886C 148.446515 149.023886 140.634515 145.757286 134.774915 140.408086L 134.774915 58.850586C 134.710715 67.427086 140.612315 75.205286 149.359815 77.216786L 149.362315 77.216786ZM 70.059815 116.103299C 79.626715 114.469999 87.883015 109.010199 93.174915 101.364599C 93.174915 101.364599 93.177415 101.359699 93.179915 101.357199C 93.335415 101.359699 93.493315 101.362099 93.648815 101.362099C 106.678715 101.362099 117.240415 90.852799 117.240415 77.887399C 117.240415 76.723199 117.154015 75.576299 116.991115 74.456299M 125.22284 105.215576C 125.28694 113.792076 119.38544 121.570276 110.63794 123.581776M 68.127257 89.914497C 66.162557 89.882597 64.160757 90.255897 62.240457 91.083597C 57.735957 93.026297 54.751857 97.009997 53.910157 101.477497M 189.940366 116.103177C 180.373366 114.469877 172.117066 109.010077 166.825166 101.364477C 166.825166 101.364477 166.822666 101.359577 166.820266 101.357077C 166.664766 101.359577 166.506766 101.361977 166.351266 101.361977C 153.321366 101.361977 142.759766 90.852677 142.759766 77.887277C 142.759766 76.723077 142.846166 75.576177 143.009066 74.456177M 134.777356 105.215454C 134.713156 113.791954 140.614756 121.570154 149.362256 123.581654M 191.872803 89.914497C 193.837503 89.882597 195.839303 90.255897 197.759603 91.083597C 202.264103 93.026297 205.248203 97.009997 206.089903 101.477497"></path></g></g></g><g id="g-root-3.line_sy_zn6oez1sorzt8-stroke" data-item-order="-94073" data-item-id="3.line_sy_zn6oez1sorzt8" data-item-class="Part Indexed Stroke ColorStrokeGray" data-item-index="3" data-renderer-id="0" transform="translate(169.99996948242188, 278.0000305175781)"><g id="3.line_sy_zn6oez1sorzt8-stroke" fill="none" stroke-linecap="round" stroke-linejoin="round" stroke-miterlimit="4" stroke="#FFFFFF" stroke-width="2"><g><path d="M 10.000031 9.999969L 56.000031 9.999969"></path><path d="M 50.000031 16.499969L 56.500031 9.999969L 50.000031 3.499969" stroke-dasharray="none"></path></g></g></g><g id="g-root-2.cu_sy_18itonv1sorz0h-stroke" data-item-order="-94072" data-item-id="2.cu_sy_18itonv1sorz0h" data-item-class="Part Indexed Fill Stroke" data-item-index="2" data-renderer-id="0" transform="translate(342.713134765625, 74)"><g id="2.cu_sy_18itonv1sorz0h-stroke" fill="none" stroke-linecap="round" stroke-linejoin="round" stroke-miterlimit="4" stroke="#ffffff" stroke-width="2"><g><path d="M 23.925937 128.405316C 36.810137 135.353516 52.917937 130.593716 59.900637 117.773216C 62.003537 113.912316 63.040237 109.759116 63.109337 105.652616L 63.151237 103.039416C 63.321537 100.637416 64.000337 98.233016 65.227037 95.978316C 67.473237 91.852216 71.150837 88.993416 75.314837 87.674516C 81.046037 80.940016 84.491737 71.476916 84.491737 61.962316C 84.464637 60.577116 84.363437 59.209016 84.195537 57.860716C 81.329937 56.310916 78.029837 55.424316 74.539737 55.424316C 69.719337 55.424316 65.308537 57.096916 61.833237 59.896716C 62.877337 63.035516 62.874837 66.540316 61.579037 69.863316C 59.542737 75.087316 54.848137 78.501216 49.630237 79.169216L 46.653537 79.346116C 40.835837 79.847116 35.524137 83.550816 33.270637 89.332316C 31.779837 93.156316 31.895837 97.203916 33.287937 100.743016C 30.301337 99.129416 26.949537 98.186316 23.311337 98.186316C 18.290837 98.186316 13.680237 99.932516 10.061737 102.850316L 10.061737 106.504916C 10.515937 115.398216 15.479537 123.851916 23.923437 128.405316L 23.925937 128.405316ZM 61.833237 59.8943C 62.877337 63.0331 62.874837 66.5379 61.579037 69.8609C 59.542737 75.0849 54.848137 78.4988 49.630237 79.1668L 46.653537 79.3436C 40.835837 79.8447 35.524137 83.5484 33.270637 89.3299C 31.779837 93.1539 31.895837 97.2015 33.287937 100.7406C 30.301337 99.127 26.949537 98.1839 23.311337 98.1839C 18.290837 98.1839 13.680237 99.9301 10.061737 102.8479L 10.061737 33.8284C 10.061737 20.6666 20.783837 10 34.008637 10C 44.318537 10 53.107937 16.4839 56.482037 25.5786C 71.155837 29.8104 82.250537 42.4196 84.193037 57.8607C 81.327437 56.311 78.027437 55.4243 74.537337 55.4243C 69.716837 55.4243 65.306037 57.0969 61.830737 59.8968L 61.833237 59.8943ZM 105.51872 96.314717C 105.51872 81.357517 96.98102 68.387117 84.49412 61.959717C 84.49412 71.476817 81.04852 80.937517 75.31722 87.674417C 71.15332 88.993317 67.47562 91.854517 65.22952 95.978217C 64.00032 98.232917 63.32402 100.637317 63.15372 103.039317L 63.11172 105.652517C 63.04262 109.759017 62.00592 113.912217 59.90302 117.773117C 52.92032 130.593517 36.81252 135.353317 23.92832 128.405217C 15.48442 123.851717 10.52082 115.398117 10.06662 106.504817L 10.06662 159.614017C 14.31692 162.008717 19.23122 163.376717 24.46642 163.376717C 26.17442 163.376717 27.84782 163.231817 29.47442 162.951817L 29.48432 162.951817C 31.76742 170.582717 38.87352 176.150517 47.28782 176.150517C 57.54582 176.150517 65.85892 167.876117 65.85892 157.671317C 65.85892 155.961917 65.62442 154.306517 65.19002 152.734717L 65.23192 152.722417C 77.65462 152.722417 87.72512 142.701817 87.72512 130.340617C 87.72512 129.837117 87.67572 128.842417 87.67572 128.842417C 96.60832 123.119817 103.03072 113.853217 104.93622 103.041817C 105.32122 100.858317 105.52362 98.611117 105.52362 96.319617L 105.51872 96.314717ZM 77.931132 201.214487C 85.365432 203.500987 93.661232 200.450687 97.686932 193.450987C 100.890732 187.878187 100.557532 181.254287 97.390832 176.150687C 106.555432 170.344587 113.557832 161.465987 116.949132 150.976287C 118.410332 146.452287 119.207632 141.631087 119.207632 136.623287C 119.207632 123.449087 113.738032 111.547187 104.936232 103.036987C 103.030732 113.850887 96.608332 123.115087 87.675732 128.837587C 87.707832 129.333687 87.725132 129.832287 87.725132 130.335787C 87.725132 142.696987 77.654632 152.717687 65.231932 152.717687L 65.190032 152.729887C 65.626932 154.301787 65.858932 155.957187 65.858932 157.666587C 65.858932 167.873787 57.543432 176.145687 47.287832 176.145687C 38.873532 176.145687 31.767532 170.577887 29.484332 162.944587L 29.474432 162.944587C 27.847932 163.226987 26.174432 163.371887 24.466432 163.371887C 19.231232 163.371887 14.319432 162.003887 10.066632 159.609287L 10.066632 199.821887C 10.002432 208.398387 15.904032 216.176587 24.651532 218.188087C 30.101432 219.443187 35.692032 218.161087 39.922532 215.179487C 54.463032 220.437887 70.536232 214.157787 77.933632 201.209587L 77.931132 201.214487ZM 33.290253 100.743042C 34.393553 103.547842 36.299053 106.033342 38.846253 107.831142M 10.06419 64.604847C 9.99999 56.028347 15.90159 48.250147 24.64909 46.238647M 40.435813 59.793643C 49.810313 56.939743 55.087413 47.066443 52.219313 37.736043C 49.351213 28.407943 39.428813 23.156943 30.054413 26.010943M 56.484548 25.578613C 54.314948 26.597913 52.372448 28.172313 50.889048 30.262413C 50.405248 30.945213 49.990548 31.652613 49.642548 32.382013M 30.024872 72.385742C 33.060772 75.328042 36.879172 77.555642 41.270172 78.705142C 42.701772 79.080842 44.138272 79.326442 45.564972 79.449242M 76.474823 110.950195C 82.788623 114.585095 87.164823 121.186895 87.673223 128.839895M 48.307156 145.619594C 44.836756 141.680094 42.733856 136.519994 42.733856 130.871094M 75.314667 87.674431C 79.695767 86.286731 84.615067 86.608431 88.976367 88.958931M 55.995819 123.326172C 57.780319 126.207072 60.317719 128.682772 63.509119 130.431472C 64.550719 131.001272 65.619519 131.472872 66.708019 131.846172M 31.88334 147.338867C 29.88154 150.288567 28.71164 153.844867 28.71164 157.671367C 28.71164 159.506067 28.98064 161.276867 29.47924 162.949367M 100.836315 151.68843C 105.874015 142.50783 104.230215 130.76063 96.168915 123.32373M 81.376787 187.271493C 78.461787 178.012293 70.553487 171.682993 61.522187 170.300293M 39.920136 215.184283C 47.171836 207.968483 47.171836 196.265483 39.920136 189.049683M 88.460663 169.89502C 91.948263 170.85532 95.134763 172.97742 97.380863 176.15072"></path></g></g></g><g id="g-root-2.line_sy_18itonv1sorz0i-stroke" data-item-order="-94069" data-item-id="2.line_sy_18itonv1sorz0i" data-item-class="Part Indexed Stroke ColorStrokeGray" data-item-index="2" data-renderer-id="0" transform="translate(451.99993896484375, 158)"><g id="2.line_sy_18itonv1sorz0i-stroke" fill="none" stroke-linecap="round" stroke-linejoin="round" stroke-miterlimit="4" stroke="#FFFFFF" stroke-width="2"><g><path d="M 64.000061 10L 12.000061 10"></path><path d="M 18.000061 3.5L 11.500061 10L 18.000061 16.5" stroke-dasharray="none"></path></g></g></g><g id="g-root-1.cu_sy_1cy0pp71sos1dz-stroke" data-item-order="-94068" data-item-id="1.cu_sy_1cy0pp71sos1dz" data-item-class="Part Indexed Indexed_1 Fill Stroke" data-item-index="1" data-renderer-id="0" transform="translate(224.084228515625, 74)"><g id="1.cu_sy_1cy0pp71sos1dz-stroke" fill="none" stroke-linecap="round" stroke-linejoin="round" stroke-miterlimit="4" stroke="#ffffff" stroke-width="2"><g><path d="M 67.369321 59.8943C 66.325321 63.0331 66.327721 66.5379 67.623621 69.8609C 69.659921 75.0849 74.354521 78.4988 79.572421 79.1668L 82.549121 79.3436C 88.366721 79.8447 93.678421 83.5484 95.931921 89.3299C 97.422721 93.1539 97.306721 97.2015 95.914621 100.7406C 98.901221 99.127 102.253121 98.1839 105.891321 98.1839C 110.911721 98.1839 115.522421 99.9301 119.140821 102.8479L 119.140821 33.8284C 119.140821 20.6666 108.418821 10 95.193921 10C 84.884021 10 76.094621 16.4839 72.720521 25.5786C 58.046821 29.8104 46.952021 42.4196 45.009521 57.8607C 47.875121 56.311 51.175221 55.4243 54.665321 55.4243C 59.485821 55.4243 63.896521 57.0969 67.371821 59.8968L 67.369321 59.8943ZM 53.887896 87.674516C 58.051796 88.993416 61.729496 91.854616 63.975596 95.978316C 65.204796 98.233016 65.881096 100.637416 66.051396 103.039416L 66.093396 105.652616C 66.162496 109.759116 67.196696 113.912316 69.302096 117.773216C 76.284796 130.593716 92.392596 135.353516 105.276796 128.405316C 113.720696 123.851916 118.684296 115.398216 119.138496 106.504916L 119.138496 102.850316C 115.519996 99.932516 110.909396 98.186316 105.888996 98.186316C 102.253196 98.186316 98.898896 99.129416 95.912296 100.743016C 97.304396 97.203916 97.417896 93.153916 95.929596 89.332316C 93.676096 83.550816 88.364396 79.847116 82.546696 79.346116L 79.569996 79.169216C 74.352196 78.501216 69.657496 75.087316 67.621196 69.863316C 66.325396 66.540316 66.322896 63.035516 67.366996 59.896716C 63.891696 57.096916 59.480996 55.424316 54.660496 55.424316C 51.170396 55.424316 47.870296 56.313416 45.004696 57.860716C 44.834396 59.206616 44.735696 60.574616 44.708496 61.962316C 44.708496 71.479416 48.154196 80.940016 53.885396 87.676916L 53.887896 87.674516ZM 105.276923 128.405258C 92.392623 135.353358 76.284923 130.593558 69.302223 117.773058C 67.199223 113.912158 66.162623 109.759058 66.093523 105.652558L 66.051523 103.039358C 65.881223 100.637358 65.202423 98.232858 63.975723 95.978258C 61.729623 91.852058 58.051923 88.993258 53.888023 87.674358C 48.156723 80.939958 44.711023 71.476858 44.711023 61.962158C 32.221723 68.389558 23.686523 81.362358 23.686523 96.317158C 23.686523 98.611058 23.888923 100.855858 24.273923 103.039358C 26.179423 113.853258 32.601823 123.117358 41.534423 128.839958C 41.534423 128.839958 41.485023 129.834658 41.485023 130.338158C 41.485023 142.699358 51.555523 152.719958 63.978223 152.719958L 64.020123 152.732258C 63.583323 154.304058 63.351223 155.959458 63.351223 157.668858C 63.351223 167.876158 71.666823 176.148058 81.922323 176.148058C 90.336623 176.148058 97.442723 170.580258 99.725823 162.946858L 99.735723 162.946858C 101.362223 163.229258 103.035723 163.374258 104.743723 163.374258C 109.978923 163.374258 114.890723 162.006158 119.143523 159.611558L 119.143523 106.502358C 118.689323 115.395658 113.725723 123.849258 105.281823 128.402758L 105.276923 128.405258ZM 104.7412 163.37677C 103.0332 163.37677 101.3597 163.23187 99.7331 162.95187L 99.7233 162.95187C 97.4401 170.58277 90.3341 176.15057 81.9198 176.15057C 71.6618 176.15057 63.3487 167.87627 63.3487 157.67147C 63.3487 155.96207 63.5832 154.30667 64.0176 152.73477L 63.9756 152.72247C 51.5529 152.72247 41.4825 142.70187 41.4825 130.34067C 41.4825 129.83717 41.4998 129.33867 41.5319 128.84247C 32.5993 123.11997 26.1769 113.85337 24.2714 103.04187C 15.4696 111.54957 10 123.45147 10 136.62817C 10 141.63597 10.7948 146.45717 12.2584 150.98117C 15.6498 161.47087 22.6522 170.34697 31.8168 176.15557C 28.6476 181.25917 28.3144 187.88307 31.5206 193.45587C 35.5464 200.45797 43.8421 203.50837 51.2765 201.21937C 58.6738 214.16757 74.7471 220.44517 89.2875 215.18927C 93.5181 218.17087 99.1087 219.45297 104.5586 218.19787C 113.306 216.18397 119.2076 208.40567 119.1434 199.83167L 119.1434 159.61907C 114.8931 162.01367 109.9788 163.38167 104.7437 163.38167L 104.7412 163.37677ZM 119.13861 64.604847C 119.20271 56.028347 113.30121 48.250147 104.55371 46.238647M 88.766648 59.793643C 79.392248 56.939743 74.115148 47.066443 76.983248 37.736043C 79.851348 28.407943 89.773748 23.156943 99.148148 26.010943M 72.718261 25.578613C 74.887861 26.597913 76.830361 28.172313 78.313761 30.262413C 78.797561 30.945213 79.212261 31.652613 79.560261 32.382013M 99.177795 72.385742C 96.141795 75.328042 92.323495 77.555642 87.932495 78.705142C 86.500895 79.080842 85.064295 79.326442 83.637695 79.449242M 95.912201 100.743042C 94.808901 103.547842 92.903401 106.033342 90.356201 107.831142M 52.727941 110.950195C 46.414241 114.585095 42.038041 121.186895 41.529541 128.839895M 80.895507 145.619594C 84.365907 141.680094 86.468807 136.519994 86.468807 130.871094M 53.888018 87.674554C 49.506918 86.286854 44.587718 86.608554 40.226318 88.959054M 73.207073 123.326172C 71.422573 126.207072 68.885173 128.682772 65.693673 130.431472C 64.652073 131.001272 63.583373 131.472872 62.494873 131.846172M 97.321533 147.338867C 99.323233 150.288567 100.493233 153.844867 100.493233 157.671367C 100.493233 159.506067 100.224233 161.276867 99.725633 162.949367M 28.366173 151.68843C 23.328473 142.50783 24.972373 130.76063 33.033673 123.32373M 47.828369 187.271493C 50.743369 178.012293 58.651669 171.682993 67.682969 170.300293M 40.741977 169.89502C 37.254377 170.85532 34.067877 172.97742 31.821777 176.15072M 89.28255 215.184283C 82.03085 207.968483 82.03085 196.265483 89.28255 189.049683"></path></g></g></g><g id="g-root-1.line_sy_18itonv1sorz0g-stroke" data-item-order="-94065" data-item-id="1.line_sy_18itonv1sorz0g" data-item-class="Part Indexed Indexed_1 Stroke ColorStrokeGray" data-item-index="1" data-renderer-id="0" transform="translate(170, 158)"><g id="1.line_sy_18itonv1sorz0g-stroke" fill="none" stroke-linecap="round" stroke-linejoin="round" stroke-miterlimit="4" stroke="#FFFFFF" stroke-width="2"><g><path d="M 10 10L 62 10"></path><path d="M 56 16.5L 62.5 10L 56 3.5" stroke-dasharray="none"></path></g></g></g><g id="g-root-tx__zn6oez1sorzt9-stroke" data-item-order="0" data-item-id="tx__zn6oez1sorzt9" data-item-class="Label Stroke Title ColorStrokeGray" data-item-index="none" data-renderer-id="0" transform="translate(284, 2)"></g><g id="g-root-tx__mbq61n1sos1e6-stroke" data-item-order="0" data-item-id="tx__mbq61n1sos1e6" data-item-class="Label Stroke Indexed Indexed_1 ColorStrokeGray" data-item-index="1" data-renderer-id="0" transform="translate(38, 146)"></g><g id="g-root-rate_hunpqz1sotez2-stroke" data-item-order="0" data-item-id="rate_hunpqz1sotez2" data-item-class="Icon Stroke Indexed Indexed_1 ColorStrokeGray" data-item-index="1" data-renderer-id="0" transform="translate(122, 140)"><g id="rate_hunpqz1sotez2-stroke" fill="none" stroke-linecap="round" stroke-linejoin="round" stroke-miterlimit="4" stroke="#FFFFFF" stroke-width="2"><g><path d="M 11.491428 21.082857C 12.802857 14.757143 20.594286 10 28 18.408571C 38.568569 6.297143 49.857143 21.314285 42.194286 29.054285L 28 42.142857L 19.694286 34.42857M 11.285714 28L 17.714285 28L 21.571428 22.857143L 26.714285 31.857143L 30.571428 26.714285L 34.42857 26.714285"></path></g></g></g><g id="g-root-danc_deu7mj1sotfrb-stroke" data-item-order="0" data-item-id="danc_deu7mj1sotfrb" data-item-class="Icon Stroke Indexed ColorStrokeGray" data-item-index="2" data-renderer-id="0" transform="translate(518, 140)"><g id="danc_deu7mj1sotfrb-stroke" fill="none" stroke-linecap="round" stroke-linejoin="round" stroke-miterlimit="4" stroke="#FFFFFF" stroke-width="2"><g><path d="M 10.75 18.684999C 10.749865 20.28396 12.04604 21.580244 13.645 21.580244C 15.243959 21.580244 16.540134 20.28396 16.539999 18.684999C 16.540134 17.08604 15.243959 15.789755 13.645 15.789755C 12.04604 15.789755 10.749865 17.08604 10.75 18.684999M 16.51 19L 17.32 11.785C 17.348854 11.508624 17.528154 11.270852 17.78594 11.167109C 18.043726 11.063366 18.337746 11.110656 18.549999 11.29L 21.459999 13.735M 13.75 33.924999C 13.75 34.910828 14.549172 35.710003 15.535001 35.710003C 16.520828 35.710003 17.32 34.910828 17.32 33.925003C 17.32 32.939171 16.520828 32.140003 15.535001 32.140003C 14.549172 32.140003 13.75 32.939171 13.75 33.925003M 17.26 33.52L 16.360001 29.68C 16.287006 29.412109 16.374554 29.12612 16.584999 28.945C 16.795015 28.761158 17.089745 28.709148 17.35 28.809999L 19 29.5M 29.5 14.89C 29.5 16.961067 31.178932 18.639999 33.25 18.639999C 35.321068 18.639999 37 16.961067 37 14.89C 37 12.818933 35.321068 11.14 33.25 11.14C 31.178932 11.14 29.5 12.818933 29.5 14.89M 44.755001 21.309999C 44.381241 20.844257 43.837662 20.546204 43.244007 20.481491C 42.650352 20.416782 42.055328 20.590723 41.590004 20.965L 40.510002 21.834999C 39.471863 22.647919 38.086178 22.863724 36.849998 22.404999C 34.528801 21.535246 31.971199 21.535246 29.65 22.404999C 28.473448 23.007633 27.070686 22.968039 25.93 22.299999L 24.655001 21.535C 23.964682 21.071825 23.075222 21.027023 22.341854 21.418484C 21.608488 21.809946 21.150723 22.573879 21.151381 23.405186C 21.152039 24.236492 21.611013 24.999701 22.345001 25.389999L 23.605 26.155001C 24.886959 26.92625 26.35393 27.335758 27.849998 27.34C 28.839857 27.33807 29.821011 27.155058 30.744999 26.799999C 30.87339 26.740259 31.02161 26.740259 31.15 26.799999C 31.270576 26.875362 31.348438 27.003281 31.360001 27.145L 31.555 29.08C 31.584682 29.389017 31.424671 29.685333 31.15 29.829998L 28.809999 31C 25.965565 32.405678 24.188931 35.327774 24.25 38.5L 24.25 41.5C 24.25 42.742641 25.25736 43.75 26.5 43.75C 27.742641 43.75 28.75 42.742641 28.75 41.5L 28.75 38.5C 28.747206 37.078136 29.548803 35.776993 30.82 35.139999L 31.75 34.675003C 31.675362 36.586395 32.257679 38.465691 33.399998 40L 36.400002 44.064999C 37.155544 45.05336 38.563911 45.253601 39.564999 44.514999C 40.554211 43.764828 40.748875 42.355194 40 41.364998L 37 37.285C 36.516041 36.634384 36.253201 35.845863 36.25 35.034996L 36.25 31C 36.25 30.684999 36.25 31.150002 35.949997 27.865C 35.919464 27.63549 36.003563 27.405617 36.175003 27.25C 36.345787 27.084469 36.586113 27.011812 36.82 27.055C 39.125233 27.440292 41.48571 26.829731 43.315002 25.375L 44.41 24.505001C 44.881126 24.128216 45.18248 23.579056 45.247246 22.979279C 45.312012 22.379503 45.134834 21.778671 44.755001 21.309999Z"></path></g></g></g><g id="g-root-tx_bpm_hwj50b1sorz0o-stroke" data-item-order="0" data-item-id="tx_bpm_hwj50b1sorz0o" data-item-class="Label Stroke Indexed ColorStrokeGray" data-item-index="2" data-renderer-id="0" transform="translate(566, 146)"></g><g id="g-root-tx__mbq61n1sos1e7-stroke" data-item-order="0" data-item-id="tx__mbq61n1sos1e7" data-item-class="Label Stroke Indexed ColorStrokeGray" data-item-index="3" data-renderer-id="0" transform="translate(2, 266)"></g><g id="g-root-expa_deu7mj1sotfrc-stroke" data-item-order="0" data-item-id="expa_deu7mj1sotfrc" data-item-class="Icon Stroke Indexed ColorStrokeGray" data-item-index="3" data-renderer-id="0" transform="translate(122, 260)"><g id="expa_deu7mj1sotfrc-stroke" fill="none" stroke-linecap="round" stroke-linejoin="round" stroke-miterlimit="4" stroke="#FFFFFF" stroke-width="2"><g><path d="M 35.086002 23.293001C 35.339756 23.420158 35.499992 23.679668 35.5 23.963501L 35.5 32.036499C 35.499992 32.320332 35.339756 32.579842 35.086002 32.707001L 28.336 36.082001C 28.124531 36.187965 27.875469 36.187965 27.664 36.082001L 20.914 32.707001C 20.660244 32.579842 20.50001 32.320332 20.5 32.036499L 20.5 23.963501C 20.50001 23.679668 20.660244 23.420158 20.914 23.293001L 27.664 19.917999C 27.875469 19.812033 28.124531 19.812033 28.336 19.917999ZM 35.3815 23.559999L 28 27.25M 28 27.25L 20.6185 23.559999M 28 27.25L 28 36.161499M 14.5 22L 11.5 25.75L 14.5 29.5M 17.5 25.75L 11.5 25.75M 24.25 42.25L 28 45.25L 31.75 42.25M 28 39.25L 28 45.25M 24.25 13.75L 28 10.75L 31.75 13.75M 28 16.75L 28 10.75M 41.5 22L 44.5 25.75L 41.5 29.5M 38.5 25.75L 44.5 25.75"></path></g></g></g></g></g></svg>