<?xml version="1.0" encoding="utf-8" standalone="yes"?>
<!DOCTYPE svg PUBLIC "-//W3C//DTD SVG 1.1//EN" "http://www.w3.org/Graphics/SVG/1.1/DTD/svg11.dtd">
<svg width="612" height="409" viewBox="0 0 612 409" style="fill:none;stroke:none;fill-rule:evenodd;clip-rule:evenodd;stroke-linecap:round;stroke-linejoin:round;stroke-miterlimit:1.5;" version="1.1" xmlns="http://www.w3.org/2000/svg" xmlns:xlink="http://www.w3.org/1999/xlink"><style id="fontImports">@import url("https://fonts.googleapis.com/css2?family=Roboto:wght@400;700&amp;display=block");</style><g id="items" style="isolation: isolate"><g id="blend" style="mix-blend-mode:screen"><g id="g-root--1.cu_sy_1ltmxi31u2reod-fill" data-item-order="-110588" data-item-id="-1.cu_sy_1ltmxi31u2reod" data-item-class="Part Fill Stroke ColorStrokeBlack" data-item-index="-1" data-renderer-id="0" transform="translate(230, 98)"><g id="-1.cu_sy_1ltmxi31u2reod-fill" stroke="none" fill="#727272"><g><path d="M 65.766602 298C 80.754802 298 106.000002 233.529 106.000002 154C 106.000002 74.471 80.754802 10 65.766602 10C 80.775202 10.0075 92.941702 74.6668 92.941702 154C 92.941702 233.333 80.775202 297.992 65.766602 298ZM 65.765897 298C 80.774597 297.992 92.941097 233.333 92.941097 154C 92.941097 74.6668 80.774597 10.0075 65.765897 10L 51.957397 10C 66.060697 15.1659 77.199297 77.8539 77.199297 154C 77.199297 230.146 65.382597 292.834 51.279297 298L 65.765897 298ZM 77.2 154C 77.2 230.146 65.3833 292.834 51.28 298L 50.0615 298C 35.0734 298 10 233.529 10 154C 10 74.471 35.0734 10 50.0615 10C 50.6991 10 51.9581 10 51.9581 10C 66.0614 15.1659 77.2 77.8539 77.2 154Z"></path></g></g></g><g id="g-root-0.cr-medium_cr_1ltmxi31u2reoe-fill" data-item-order="-110586" data-item-id="0.cr-medium_cr_1ltmxi31u2reoe" data-item-class="Shape Stroke Fill Part Indexed_0 ColorStrokeGray" data-item-index="0" data-renderer-id="0" transform="translate(398, 206)"><g id="0.cr-medium_cr_1ltmxi31u2reoe-fill" stroke="none" fill="#727272"><g><path d="M 10 46C 10 65.882251 26.117749 82 46 82C 65.882251 82 82 65.882251 82 46C 82 26.117749 65.882251 10 46 10C 26.117749 10 10 26.117749 10 46"></path></g></g></g><g id="g-root-2.line_sy_1hefwgr1u2rcax-fill" data-item-order="-110583" data-item-id="2.line_sy_1hefwgr1u2rcax" data-item-class="Part Indexed Stroke" data-item-index="2" data-renderer-id="0" transform="translate(146, 253.99996948242188)"></g><g id="g-root-2.cr-small_cr_1hefwgr1u2rcay-fill" data-item-order="-110582" data-item-id="2.cr-small_cr_1hefwgr1u2rcay" data-item-class="Shape Stroke Fill Part Indexed ColorStrokeGray" data-item-index="2" data-renderer-id="0" transform="translate(86, 254.00006103515625)"><g id="2.cr-small_cr_1hefwgr1u2rcay-fill" stroke="none" fill="#727272"><g><path d="M 10 40C 10.000002 56.568544 23.431459 70.000002 40.000002 70.000002C 56.568544 70.000002 70.000002 56.568544 70.000002 40.000002C 70.000002 23.431459 56.568544 10.000002 40.000002 10.000002C 23.431459 10.000002 10.000002 23.431459 10.000002 40.000002"></path></g></g></g><g id="g-root-1.line_sy_1ltmxi31u2reof-fill" data-item-order="-110579" data-item-id="1.line_sy_1ltmxi31u2reof" data-item-class="Part Indexed Indexed_1 Stroke" data-item-index="1" data-renderer-id="0" transform="translate(146, 200)"></g><g id="g-root-1.cr-small_cr_1hefwgr1u2rcaw-fill" data-item-order="-110578" data-item-id="1.cr-small_cr_1hefwgr1u2rcaw" data-item-class="Shape Stroke Fill Part Indexed Indexed_1 ColorStrokeGray" data-item-index="1" data-renderer-id="0" transform="translate(86, 170)"><g id="1.cr-small_cr_1hefwgr1u2rcaw-fill" stroke="none" fill="#727272"><g><path d="M 10 40C 10.000002 56.568544 23.431459 70.000002 40.000002 70.000002C 56.568544 70.000002 70.000002 56.568544 70.000002 40.000002C 70.000002 23.431459 56.568544 10.000002 40.000002 10.000002C 23.431459 10.000002 10.000002 23.431459 10.000002 40.000002"></path></g></g></g><g id="g-root-tx__zn5vyz1u2reo6-fill" data-item-order="0" data-item-id="tx__zn5vyz1u2reo6" data-item-class="Label Stroke Title" data-item-index="none" data-renderer-id="0" transform="translate(176, 2)"><g id="tx__zn5vyz1u2reo6-fill" stroke="none" fill="#ffffff"><g><text style="font: 20px Roboto, sans-serif; white-space: pre;"><tspan x="56" y="33.5" dominant-baseline="ideographic">心で感じる</tspan><tspan x="16" y="57.5" dominant-baseline="ideographic">心拍数と音楽の同期</tspan></text></g></g></g><g id="g-root-tx__142ze3f1u2rdvx-fill" data-item-order="0" data-item-id="tx__142ze3f1u2rdvx" data-item-class="Label Stroke Indexed Indexed_1" data-item-index="1" data-renderer-id="0" transform="translate(2, 188)"><g id="tx__142ze3f1u2rdvx-fill" stroke="none" fill="#ffffff"><g><text style="font: 20px Roboto, sans-serif; white-space: pre;"><tspan x="20" y="33.5" dominant-baseline="ideographic">心拍数</tspan></text></g></g></g><g id="g-root-rate_1448c9n1u2vl6w-fill" data-item-order="0" data-item-id="rate_1448c9n1u2vl6w" data-item-class="Icon Stroke Indexed Indexed_1 InsideFill ColorStrokeGray" data-item-index="1" data-renderer-id="0" transform="translate(98, 182)"></g><g id="g-root-48px_18k1ue31u2vkem-fill" data-item-order="0" data-item-id="48px_18k1ue31u2vkem" data-item-class="Icon Stroke InsideFill ColorStrokeGray" data-item-index="none" data-renderer-id="0" transform="translate(410, 218)"></g><g id="g-root-tx__1cymecb1u2rd37-fill" data-item-order="0" data-item-id="tx__1cymecb1u2rd37" data-item-class="Label Stroke" data-item-index="none" data-renderer-id="0" transform="translate(482, 230)"><g id="tx__1cymecb1u2rd37-fill" stroke="none" fill="#ffffff"><g><text style="font: 20px Roboto, sans-serif; white-space: pre;"><tspan x="12" y="33.5" dominant-baseline="ideographic">魔法の効果</tspan></text></g></g></g><g id="g-root-tx_bpm_142ze3f1u2rdvw-fill" data-item-order="0" data-item-id="tx_bpm_142ze3f1u2rdvw" data-item-class="Label Stroke Indexed" data-item-index="2" data-renderer-id="0" transform="translate(26, 272)"><g id="tx_bpm_142ze3f1u2rdvw-fill" stroke="none" fill="#ffffff"><g><text style="font: 20px Roboto, sans-serif; white-space: pre;"><tspan x="13.47" y="33.5" dominant-baseline="ideographic">BPM</tspan></text></g></g></g><g id="g-root-metr_18k1ue31u2vken-fill" data-item-order="0" data-item-id="metr_18k1ue31u2vken" data-item-class="Icon Stroke Indexed InsideFill ColorStrokeGray" data-item-index="2" data-renderer-id="0" transform="translate(98, 266)"></g><g id="g-root--1.cu_sy_1ltmxi31u2reod-stroke" data-item-order="-110588" data-item-id="-1.cu_sy_1ltmxi31u2reod" data-item-class="Part Fill Stroke ColorStrokeBlack" data-item-index="-1" data-renderer-id="0" transform="translate(230, 98)"><g id="-1.cu_sy_1ltmxi31u2reod-stroke" fill="none" stroke-linecap="round" stroke-linejoin="round" stroke-miterlimit="4" stroke="#666666" stroke-width="2"><g><path d="M 65.766602 298C 80.754802 298 106.000002 233.529 106.000002 154C 106.000002 74.471 80.754802 10 65.766602 10C 80.775202 10.0075 92.941702 74.6668 92.941702 154C 92.941702 233.3332 80.775202 297.9925 65.766602 298ZM 65.765897 298C 80.774597 297.9925 92.941097 233.3332 92.941097 154C 92.941097 74.6668 80.774597 10.0075 65.765897 10L 51.957397 10C 66.060697 15.1659 77.199297 77.8539 77.199297 154C 77.199297 230.1462 65.382597 292.8341 51.279297 298L 65.765897 298ZM 77.2 154C 77.2 230.1462 65.3833 292.8341 51.28 298L 50.0615 298C 35.0734 298 10 233.529 10 154C 10 74.471 35.0734 10 50.0615 10C 50.6991 10 51.9581 10 51.9581 10C 66.0614 15.1659 77.2 77.8539 77.2 154Z"></path></g></g></g><g id="g-root-0.cr-medium_cr_1ltmxi31u2reoe-stroke" data-item-order="-110586" data-item-id="0.cr-medium_cr_1ltmxi31u2reoe" data-item-class="Shape Stroke Fill Part Indexed_0 ColorStrokeGray" data-item-index="0" data-renderer-id="0" transform="translate(398, 206)"><g id="0.cr-medium_cr_1ltmxi31u2reoe-stroke" fill="none" stroke-linecap="round" stroke-linejoin="round" stroke-miterlimit="4" stroke="#2C2C2C" stroke-width="2"><g><path d="M 10 46C 10 65.882251 26.117749 82 46 82C 65.882251 82 82 65.882251 82 46C 82 26.117749 65.882251 10 46 10C 26.117749 10 10 26.117749 10 46"></path></g></g></g><g id="g-root-2.line_sy_1hefwgr1u2rcax-stroke" data-item-order="-110583" data-item-id="2.line_sy_1hefwgr1u2rcax" data-item-class="Part Indexed Stroke" data-item-index="2" data-renderer-id="0" transform="translate(146, 253.99996948242188)"><g id="2.line_sy_1hefwgr1u2rcax-stroke" fill="none" stroke-linecap="round" stroke-linejoin="round" stroke-miterlimit="4" stroke="#19d97c" stroke-width="2"><g><path d="M 250.06 10.480011L 130 40.000011L 10 40.000011"></path><path d="M 245.8 18.180011L 250.5 10.380011L 242.7 5.580011" stroke-dasharray="none"></path></g></g></g><g id="g-root-2.cr-small_cr_1hefwgr1u2rcay-stroke" data-item-order="-110582" data-item-id="2.cr-small_cr_1hefwgr1u2rcay" data-item-class="Shape Stroke Fill Part Indexed ColorStrokeGray" data-item-index="2" data-renderer-id="0" transform="translate(86, 254.00006103515625)"><g id="2.cr-small_cr_1hefwgr1u2rcay-stroke" fill="none" stroke-linecap="round" stroke-linejoin="round" stroke-miterlimit="4" stroke="#2C2C2C" stroke-width="2"><g><path d="M 10 40C 10.000002 56.568544 23.431459 70.000002 40.000002 70.000002C 56.568544 70.000002 70.000002 56.568544 70.000002 40.000002C 70.000002 23.431459 56.568544 10.000002 40.000002 10.000002C 23.431459 10.000002 10.000002 23.431459 10.000002 40.000002"></path></g></g></g><g id="g-root-1.line_sy_1ltmxi31u2reof-stroke" data-item-order="-110579" data-item-id="1.line_sy_1ltmxi31u2reof" data-item-class="Part Indexed Indexed_1 Stroke" data-item-index="1" data-renderer-id="0" transform="translate(146, 200)"><g id="1.line_sy_1ltmxi31u2reof-stroke" fill="none" stroke-linecap="round" stroke-linejoin="round" stroke-miterlimit="4" stroke="#00b9ff" stroke-width="2"><g><path d="M 250.06 39.52L 130 10L 10 10"></path><path d="M 242.7 44.4L 250.5 39.6L 245.8 31.8" stroke-dasharray="none"></path></g></g></g><g id="g-root-1.cr-small_cr_1hefwgr1u2rcaw-stroke" data-item-order="-110578" data-item-id="1.cr-small_cr_1hefwgr1u2rcaw" data-item-class="Shape Stroke Fill Part Indexed Indexed_1 ColorStrokeGray" data-item-index="1" data-renderer-id="0" transform="translate(86, 170)"><g id="1.cr-small_cr_1hefwgr1u2rcaw-stroke" fill="none" stroke-linecap="round" stroke-linejoin="round" stroke-miterlimit="4" stroke="#2C2C2C" stroke-width="2"><g><path d="M 10 40C 10.000002 56.568544 23.431459 70.000002 40.000002 70.000002C 56.568544 70.000002 70.000002 56.568544 70.000002 40.000002C 70.000002 23.431459 56.568544 10.000002 40.000002 10.000002C 23.431459 10.000002 10.000002 23.431459 10.000002 40.000002"></path></g></g></g><g id="g-root-tx__zn5vyz1u2reo6-stroke" data-item-order="0" data-item-id="tx__zn5vyz1u2reo6" data-item-class="Label Stroke Title" data-item-index="none" data-renderer-id="0" transform="translate(176, 2)"></g><g id="g-root-tx__142ze3f1u2rdvx-stroke" data-item-order="0" data-item-id="tx__142ze3f1u2rdvx" data-item-class="Label Stroke Indexed Indexed_1" data-item-index="1" data-renderer-id="0" transform="translate(2, 188)"></g><g id="g-root-rate_1448c9n1u2vl6w-stroke" data-item-order="0" data-item-id="rate_1448c9n1u2vl6w" data-item-class="Icon Stroke Indexed Indexed_1 InsideFill ColorStrokeGray" data-item-index="1" data-renderer-id="0" transform="translate(98, 182)"><g id="rate_1448c9n1u2vl6w-stroke" fill="none" stroke-linecap="round" stroke-linejoin="round" stroke-miterlimit="4" stroke="#2C2C2C" stroke-width="2"><g><path d="M 11.491428 21.082857C 12.802857 14.757143 20.594286 10 28 18.408571C 38.568569 6.297143 49.857143 21.314285 42.194286 29.054285L 28 42.142857L 19.694286 34.42857M 11.285714 28L 17.714285 28L 21.571428 22.857143L 26.714285 31.857143L 30.571428 26.714285L 34.42857 26.714285"></path></g></g></g><g id="g-root-48px_18k1ue31u2vkem-stroke" data-item-order="0" data-item-id="48px_18k1ue31u2vkem" data-item-class="Icon Stroke InsideFill ColorStrokeGray" data-item-index="none" data-renderer-id="0" transform="translate(410, 218)"><g id="48px_18k1ue31u2vkem-stroke" fill="none" stroke-linecap="round" stroke-linejoin="round" stroke-miterlimit="4" stroke="#2C2C2C" stroke-width="2"><g><path d="M 28.6723 36.5443C 28.7068 36.6103 28.7413 36.6599 28.7758 36.6929C 28.8792 36.825 28.9654 36.9405 29.0344 37.0396C 29.1379 37.1386 29.2241 37.2377 29.293 37.3368C 29.362 37.4358 29.4482 37.5514 29.5517 37.6835C 29.6206 37.7825 29.6551 37.832 29.6551 37.832C 29.6551 37.832 29.8103 37.9146 30.1207 38.0797C 30.3965 38.2778 30.6896 38.4429 31 38.575C 31.3448 38.707 31.7069 38.8226 32.0862 38.9217C 32.5001 38.9877 32.9139 39.0372 33.3277 39.0703C 33.776 39.1033 34.2243 39.1033 34.6726 39.0703C 35.0864 39.0372 35.4829 38.9877 35.8623 38.9217C 36.2761 38.8226 36.6381 38.707 36.9485 38.575C 37.2933 38.4429 37.6037 38.2778 37.8796 38.0797C 38.1554 37.9146 38.2934 37.832 38.2934 37.832C 38.2934 37.832 38.3451 37.7825 38.4486 37.6835C 38.5175 37.5514 38.6037 37.4358 38.7072 37.3368C 38.7762 37.2377 38.8451 37.1386 38.9141 37.0396C 39.0175 36.9405 39.1038 36.825 39.1727 36.6929C 39.2417 36.6599 39.2934 36.6103 39.3279 36.5443M 30.431 31.4429C 30.431 31.3438 30.4138 31.2282 30.3793 31.0962C 30.3448 30.832 30.2758 30.6174 30.1724 30.4523C 30.0689 30.2872 29.9138 30.1386 29.7068 30.0065C 29.5344 29.9075 29.3275 29.8414 29.0861 29.8084C 28.8103 29.7754 28.5516 29.7754 28.3102 29.8084C 28.0344 29.8414 27.8102 29.9075 27.6378 30.0065C 27.4309 30.1386 27.2757 30.2872 27.1723 30.4523C 27.0688 30.6174 26.9998 30.832 26.9654 31.0962C 26.9309 31.2282 26.9136 31.3438 26.9136 31.4429M 41.0866 31.4429C 41.0521 31.3438 41.0349 31.2282 41.0349 31.0962C 41.0004 30.832 40.9314 30.6174 40.828 30.4523C 40.69 30.2872 40.5348 30.1386 40.3624 30.0065C 40.19 29.9075 39.9659 29.8414 39.69 29.8084C 39.4486 29.7754 39.19 29.7754 38.9141 29.8084C 38.6727 29.8414 38.4486 29.9075 38.2417 30.0065C 38.0692 30.1386 37.9313 30.2872 37.8278 30.4523C 37.7244 30.6174 37.6382 30.832 37.5692 31.0962C 37.5692 31.2282 37.552 31.3438 37.5175 31.4429M 34.0001 51.0196L 34.0001 54.8018M 51.7751 33.9998L 55.7251 33.9998M 34.0001 16.97994L 34.0001 13.19775M 16.22514 33.9998L 12.27515 33.9998M 21.4589 46.0082L 18.59514 48.7503M 46.5413 46.0082L 49.4051 48.7503M 46.5413 21.9913L 49.4051 19.24925M 21.4589 21.9913L 18.59514 19.24925M 47.8251 33.9998C 47.7593 33.5585 47.7263 33.1173 47.7263 32.676C 47.5947 31.7935 47.4301 30.9425 47.2326 30.123C 46.9693 29.3036 46.6072 28.5156 46.1463 27.7592C 45.7513 27.0658 45.2576 26.3724 44.6651 25.679C 44.0726 24.9856 43.7763 24.6389 43.7763 24.6389C 43.7763 24.6389 43.4143 24.3552 42.6901 23.7879C 41.9659 23.2205 41.2418 22.7478 40.5176 22.3695C 39.7276 21.9283 38.9047 21.5816 38.0489 21.3294C 37.193 21.1403 36.3043 20.9827 35.3826 20.8567C 34.4609 20.7936 34.0001 20.7621 34.0001 20.7621C 34.0001 20.7621 33.5393 20.7936 32.6176 20.8567C 31.6959 20.9827 30.8072 21.1403 29.9514 21.3294C 29.0955 21.5816 28.2726 21.9283 27.4826 22.3695C 26.7585 22.7478 26.0343 23.2205 25.3101 23.7879C 24.586 24.3552 24.2239 24.6389 24.2239 24.6389C 24.2239 24.6389 23.9276 24.9856 23.3351 25.679C 22.7426 26.3724 22.2489 27.0658 21.8539 27.7592C 21.393 28.5156 21.031 29.3036 20.7676 30.123C 20.5701 30.9425 20.4055 31.7935 20.2739 32.676C 20.208 33.5585 20.1751 33.9998 20.1751 33.9998C 20.1751 33.9998 20.208 34.441 20.2739 35.3235C 20.4055 36.206 20.5701 37.057 20.7676 37.8765C 21.031 38.696 21.393 39.4839 21.8539 40.2404C 22.2489 40.9338 22.7426 41.6272 23.3351 42.3206C 23.9276 43.014 24.2239 43.3607 24.2239 43.3607C 24.2239 43.3607 24.586 43.6443 25.3101 44.2117C 26.0343 44.779 26.7585 45.2518 27.4826 45.63C 28.2726 46.0712 29.0955 46.4179 29.9514 46.6701C 30.8072 46.8592 31.6959 47.0168 32.6176 47.1428C 33.5393 47.2059 34.0001 47.2374 34.0001 47.2374C 34.0001 47.2374 34.4609 47.2059 35.3826 47.1428C 36.3043 47.0168 37.193 46.8592 38.0489 46.6701C 38.9047 46.4179 39.7276 46.0712 40.5176 45.63C 41.2418 45.2518 41.9659 44.779 42.6901 44.2117C 43.4143 43.6443 43.7763 43.3607 43.7763 43.3607C 43.7763 43.3607 44.0726 43.014 44.6651 42.3206C 45.2576 41.6272 45.7513 40.9338 46.1463 40.2404C 46.6072 39.4839 46.9693 38.696 47.2326 37.8765C 47.4301 37.057 47.5947 36.206 47.7263 35.3235C 47.7922 34.441 47.8251 33.9998 47.8251 33.9998Z"></path></g></g></g><g id="g-root-tx__1cymecb1u2rd37-stroke" data-item-order="0" data-item-id="tx__1cymecb1u2rd37" data-item-class="Label Stroke" data-item-index="none" data-renderer-id="0" transform="translate(482, 230)"></g><g id="g-root-tx_bpm_142ze3f1u2rdvw-stroke" data-item-order="0" data-item-id="tx_bpm_142ze3f1u2rdvw" data-item-class="Label Stroke Indexed" data-item-index="2" data-renderer-id="0" transform="translate(26, 272)"></g><g id="g-root-metr_18k1ue31u2vken-stroke" data-item-order="0" data-item-id="metr_18k1ue31u2vken" data-item-class="Icon Stroke Indexed InsideFill ColorStrokeGray" data-item-index="2" data-renderer-id="0" transform="translate(98, 266)"><g id="metr_18k1ue31u2vken-stroke" fill="none" stroke-linecap="round" stroke-linejoin="round" stroke-miterlimit="4" stroke="#2C2C2C" stroke-width="2"><g><path d="M 10 10M 35.949997 26.487999L 40.546001 40.276001C 40.698364 40.733459 40.621536 41.236275 40.339516 41.627357C 40.057491 42.018444 39.604668 42.250118 39.122501 42.25L 14.791 42.25C 14.308835 42.250118 13.856008 42.018444 13.573986 41.627357C 13.291965 41.236275 13.215136 40.733459 13.3675 40.276001L 22.867001 11.776C 23.071108 11.163186 23.644588 10.749845 24.290501 10.75L 29.629002 10.75C 30.274359 10.75049 30.847067 11.16371 31.051001 11.776L 33.203499 18.2335M 15.709 33.25L 38.209 33.25M 15.709 42.25L 15.709 45.25M 38.209 42.25L 38.209 45.25M 17.209 28.75L 24.709 28.75M 18.709 24.25L 24.709 24.25M 20.209 19.75L 24.709 19.75M 21.709 15.25L 24.709 15.25M 36.709 15.25C 36.709 16.906855 38.052147 18.25 39.709 18.25C 41.365856 18.25 42.709 16.906855 42.709 15.25C 42.709 13.593145 41.365856 12.25 39.709 12.25C 38.052147 12.25 36.709 13.593145 36.709 15.25ZM 26.959 33.25L 37.978001 17.696501"></path></g></g></g></g></g></svg>
